<?xml version="1.0" encoding="UTF-8"?>
<svg xmlns="http://www.w3.org/2000/svg" xmlns:xlink="http://www.w3.org/1999/xlink" width="20pt" height="19pt" viewBox="0 0 20 19" version="1.1">
<g id="surface1">
<path style=" stroke:none;fill-rule:nonzero;fill:rgb(0%,0%,0%);fill-opacity:1;" d="M 9.417969 11.273438 C 7.980469 11.273438 6.820312 10.183594 6.820312 8.84375 C 6.820312 7.507812 7.980469 6.417969 9.417969 6.417969 C 10.84375 6.417969 12.011719 7.507812 12.011719 8.84375 C 12.011719 10.183594 10.84375 11.273438 9.417969 11.273438 Z M 9.417969 7.804688 C 8.800781 7.804688 8.300781 8.273438 8.300781 8.84375 C 8.300781 9.421875 8.800781 9.886719 9.417969 9.886719 C 10.027344 9.886719 10.527344 9.421875 10.527344 8.84375 C 10.527344 8.273438 10.027344 7.804688 9.417969 7.804688 Z M 13.34375 14.117188 L 12.300781 13.144531 L 9.453125 15.796875 L 6.71875 13.246094 L 5.667969 14.226562 L 9.453125 17.761719 Z M 13.34375 3.644531 L 9.453125 0 L 5.632812 3.570312 L 6.683594 4.550781 L 9.453125 1.964844 L 12.300781 4.625 Z M 13.34375 3.644531 "/>
</g>
</svg>
