<?xml version="1.0" encoding="UTF-8"?>
<svg xmlns="http://www.w3.org/2000/svg" xmlns:xlink="http://www.w3.org/1999/xlink" width="9pt" height="9pt" viewBox="0 0 9 9" version="1.1">
<g id="surface1">
<path style=" stroke:none;fill-rule:nonzero;fill:rgb(0%,0%,0%);fill-opacity:1;" d="M 6.1875 0 L 2.8125 0 C 1.261719 0 0 1.261719 0 2.8125 L 0 6.1875 C 0 7.738281 1.261719 9 2.8125 9 L 6.1875 9 C 7.738281 9 9 7.738281 9 6.1875 L 9 2.8125 C 9 1.261719 7.738281 0 6.1875 0 Z M 8.15625 6.1875 C 8.15625 7.273438 7.273438 8.15625 6.1875 8.15625 L 2.8125 8.15625 C 1.726562 8.15625 0.84375 7.273438 0.84375 6.1875 L 0.84375 2.8125 C 0.84375 1.726562 1.726562 0.84375 2.8125 0.84375 L 6.1875 0.84375 C 7.273438 0.84375 8.15625 1.726562 8.15625 2.8125 Z M 8.15625 6.1875 "/>
<path style=" stroke:none;fill-rule:nonzero;fill:rgb(0%,0%,0%);fill-opacity:1;" d="M 4.5 2.25 C 3.257812 2.25 2.25 3.257812 2.25 4.5 C 2.25 5.742188 3.257812 6.75 4.5 6.75 C 5.742188 6.75 6.75 5.742188 6.75 4.5 C 6.75 3.257812 5.742188 2.25 4.5 2.25 Z M 4.5 5.90625 C 3.722656 5.90625 3.09375 5.277344 3.09375 4.5 C 3.09375 3.722656 3.722656 3.09375 4.5 3.09375 C 5.277344 3.09375 5.90625 3.722656 5.90625 4.5 C 5.90625 5.277344 5.277344 5.90625 4.5 5.90625 Z M 4.5 5.90625 "/>
<path style=" stroke:none;fill-rule:nonzero;fill:rgb(0%,0%,0%);fill-opacity:1;" d="M 7.21875 2.082031 C 7.21875 2.246094 7.082031 2.382812 6.917969 2.382812 C 6.753906 2.382812 6.617188 2.246094 6.617188 2.082031 C 6.617188 1.917969 6.753906 1.78125 6.917969 1.78125 C 7.082031 1.78125 7.21875 1.917969 7.21875 2.082031 Z M 7.21875 2.082031 "/>
</g>
</svg>
