<?xml version="1.0" encoding="UTF-8"?>
<svg xmlns="http://www.w3.org/2000/svg" xmlns:xlink="http://www.w3.org/1999/xlink" width="9pt" height="9pt" viewBox="0 0 9 9" version="1.1">
<g id="surface1">
<path style=" stroke:none;fill-rule:nonzero;fill:rgb(0%,0%,0%);fill-opacity:1;" d="M 8.347656 0 L 0.652344 0 C 0.289062 0 0 0.289062 0 0.652344 L 0 8.347656 C 0 8.710938 0.289062 9 0.652344 9 L 8.347656 9 C 8.710938 9 9 8.710938 9 8.347656 L 9 0.652344 C 9 0.289062 8.710938 0 8.347656 0 Z M 3.191406 6.800781 L 2.097656 6.800781 L 2.097656 3.507812 L 3.191406 3.507812 Z M 2.644531 3.054688 L 2.636719 3.054688 C 2.269531 3.054688 2.03125 2.800781 2.03125 2.484375 C 2.03125 2.160156 2.277344 1.917969 2.652344 1.917969 C 3.027344 1.917969 3.257812 2.160156 3.261719 2.484375 C 3.261719 2.800781 3.027344 3.054688 2.644531 3.054688 Z M 7.144531 6.800781 L 6.046875 6.800781 L 6.046875 5.039062 C 6.046875 4.597656 5.886719 4.292969 5.492188 4.292969 C 5.191406 4.292969 5.011719 4.496094 4.929688 4.691406 C 4.902344 4.761719 4.894531 4.863281 4.894531 4.964844 L 4.894531 6.800781 L 3.800781 6.800781 C 3.800781 6.800781 3.816406 3.816406 3.800781 3.507812 L 4.894531 3.507812 L 4.894531 3.972656 C 5.039062 3.746094 5.300781 3.425781 5.882812 3.425781 C 6.605469 3.425781 7.144531 3.898438 7.144531 4.914062 Z M 7.144531 6.800781 "/>
</g>
</svg>
