<?xml version="1.0" encoding="UTF-8"?>
<svg xmlns="http://www.w3.org/2000/svg" xmlns:xlink="http://www.w3.org/1999/xlink" width="9pt" height="9pt" viewBox="0 0 9 9" version="1.1">
<g id="surface1">
<path style=" stroke:none;fill-rule:nonzero;fill:rgb(0%,0%,0%);fill-opacity:1;" d="M 8.207031 1.417969 L 0.792969 1.417969 C 0.355469 1.417969 0 1.773438 0 2.207031 L 0 6.792969 C 0 7.226562 0.355469 7.582031 0.792969 7.582031 L 8.207031 7.582031 C 8.644531 7.582031 9 7.226562 9 6.792969 L 9 2.207031 C 9 1.773438 8.644531 1.417969 8.207031 1.417969 Z M 8.105469 1.945312 L 8 2.035156 L 4.8125 4.683594 C 4.632812 4.835938 4.367188 4.835938 4.1875 4.683594 L 1 2.035156 L 0.894531 1.945312 Z M 0.527344 2.324219 L 3.121094 4.488281 L 0.527344 6.214844 Z M 8.207031 7.054688 L 0.792969 7.054688 C 0.664062 7.054688 0.558594 6.964844 0.535156 6.84375 L 3.542969 4.839844 L 3.847656 5.089844 C 4.035156 5.246094 4.269531 5.324219 4.5 5.324219 C 4.730469 5.324219 4.964844 5.246094 5.152344 5.089844 L 5.457031 4.839844 L 8.464844 6.84375 C 8.441406 6.964844 8.335938 7.054688 8.207031 7.054688 Z M 8.472656 6.214844 L 5.878906 4.488281 L 8.472656 2.324219 Z M 8.472656 6.214844 "/>
</g>
</svg>
